<?xml version="1.0" encoding="UTF-8"?>
<!DOCTYPE svg  PUBLIC '-//W3C//DTD SVG 20010904//EN'  'http://www.w3.org/TR/2001/REC-SVG-20010904/DTD/svg10.dtd'>
<svg width="256pt" height="256pt" version="1.0" viewBox="0 0 256 256" xmlns="http://www.w3.org/2000/svg">
<metadata>Created by potrace 1.10, written by Peter Selinger 2001-2011</metadata>
<g transform="translate(0 256) scale(.05 -.05)" fill="#fff">
<path d="m1833 4805c-26-41-134-209-240-373-227-350-219-316-88-372 58-25 225-103 373-173 147-70 278-127 291-127 25 0 451 734 451 777 0 35-81 227-108 257-20 22-454 86-580 86-38 0-64-20-99-75z"/>
<path d="m2812 4505c-99-55-555-770-516-808 8-7 118-60 244-118 294-134 272-104 243-341-14-111-22-206-17-211 11-11 699 970 701 1e3 1 13-6 71-15 130l-16 107-228 148c-257 167-261 168-396 93z"/>
<path d="m1265 3925c-33-52-219-340-412-639l-352-545 529-881 529-882 6-414 5-414h1010 1010l5 337 6 337 304 356 87 405c47 223 91 421 95 440 5 19 6 35 2 35-5 0-349-422-421-517-3-4-125 91-272 211-688 566-1158 870-1231 798-4-4 78-159 181-344 103-186 270-487 371-670l183-332v-273-273h-50-50v266 267l-373 683-373 684h-217-217v50 50h211 212l-213 182c-204 176-210 184-178 221 34 36 36 36 76 1 23-20 105-91 183-158l140-122 287 77c342 92 294 47 328 307l28 218-222 105c-122 57-339 158-482 225-143 66-349 162-457 212-108 51-199 92-201 92-3 0-33-43-67-95z"/>
<path d="m3054 3219c-250-363-460-672-466-687-6-17 64-79 196-173 113-80 233-167 267-192l61-46 451 545 451 544 25 135c29 155 42 125-159 373l-130 160-120 1h-120l-456-660z"/>
<path d="m3625 2568-426-510 56-46c238-201 375-312 384-311 21 1 711 861 727 905 10 27 2 114-21 224l-37 180-99 33c-54 19-112 34-129 34-16 0-221-229-455-509z"/>
<path d="m2344 2756c-124-34-222-64-218-68 3-4 89-19 191-34l184-28 69 97c84 117 85 117-226 33z"/>
</g>
</svg>