<?xml version="1.0" encoding="UTF-8"?>
<!DOCTYPE svg  PUBLIC '-//W3C//DTD SVG 20010904//EN'  'http://www.w3.org/TR/2001/REC-SVG-20010904/DTD/svg10.dtd'>
<svg version="1.0" viewBox="0 0 256 256" xmlns="http://www.w3.org/2000/svg">
<metadata>Created by potrace 1.10, written by Peter Selinger 2001-2011</metadata>
<g transform="translate(0 256) scale(.1 -.1)" fill="#fff">
<path d="m1215 2372c-26-64-70-169-97-233l-49-116-187-12c-103-7-204-13-224-13-21-1-38-4-38-8s80-73 178-155c97-81 178-150 180-154 1-3-22-105-52-226s-52-222-51-224c2-2 90 54 195 123s193 126 197 126c3 0 91-56 195-125 105-69 192-124 194-122 3 3-86 378-102 429-3 12 44 57 176 168 99 84 180 156 180 159 0 4-100 13-222 20-123 7-224 14-225 14 0 1-42 101-93 222s-95 226-99 232c-4 7-28-38-56-105z"/>
<path d="m150 1656v-123l468-380 467-379 5-354 5-355 78-3 77-3v420 419l-545 441c-299 243-547 441-550 441s-5-56-5-124z"/>
<path d="m1855 1341-540-437-3-422-2-422h74c68 0 74 2 80 22 3 13 6 174 6 358v336l940 758v123c0 68-3 123-7 123-5-1-251-198-548-439z"/>
<path d="m1908 1018-398-322v-93-94l288 232c158 128 338 273 400 322l112 91v93c0 51-1 93-2 93-2-1-182-146-400-322z"/>
<path d="m242 1248c-1-46 1-88 5-94 5-6 179-147 388-314 209-166 388-310 398-318 16-14 17-10 17 79v94l-390 313c-215 172-396 315-403 317-9 4-13-17-15-77z"/>
<path d="m420 877v-85l307-248c169-137 311-250 315-252s8 34 8 80l-1 83-260 210c-144 116-285 229-315 253l-54 44v-85z"/>
<path d="m1822 709-312-252v-84-84l28 21c15 12 156 126 315 253l287 231v83c0 46-1 83-3 83-1 0-143-113-315-251z"/>
<path d="m600 513c0-82-25-54 248-272l202-161v77l-1 78-214 170c-117 93-218 171-224 173-7 2-11-21-11-65z"/>
<path d="m1727 408-217-173v-78-77l440 352v74c0 41-1 74-3 74s-101-78-220-172z"/>
</g>
</svg>
