<?xml version="1.0" standalone="no"?>
<!DOCTYPE svg PUBLIC "-//W3C//DTD SVG 20010904//EN"
 "http://www.w3.org/TR/2001/REC-SVG-20010904/DTD/svg10.dtd">
<svg version="1.0" xmlns="http://www.w3.org/2000/svg"
 width="256.000000pt" height="256.000000pt" viewBox="0 0 256.000000 256.000000"
 preserveAspectRatio="xMidYMid meet">
<metadata>
Created by potrace 1.10, written by Peter Selinger 2001-2011
</metadata>
<g transform="translate(0.000000,256.000000) scale(0.050000,-0.050000)"
fill="#000000" stroke="none">
<path d="M2335 4356 l-5 -606 -55 209 c-67 251 -51 233 -186 201 -143 -35
-140 -22 -70 -273 33 -118 57 -218 53 -222 -4 -4 -135 216 -292 489 -157 273
-296 511 -308 529 -20 29 -38 24 -167 -51 l-144 -84 81 -139 c91 -153 477
-827 493 -859 6 -11 -58 47 -142 129 l-153 150 -90 -89 -90 -89 195 -198 c107
-108 173 -186 145 -172 -27 14 -283 159 -567 323 -284 165 -519 296 -522 293
-42 -53 -151 -268 -144 -285 5 -12 221 -143 480 -292 259 -148 469 -271 467
-273 -2 -2 -82 17 -177 43 l-173 46 -31 -122 c-37 -146 -51 -133 224 -204 117
-30 224 -60 237 -67 13 -7 -124 -13 -304 -13 -304 0 -330 -3 -373 -42 -87 -78
-180 -71 -256 21 -18 22 -61 31 -148 31 -213 -1 -213 0 -213 -182 l0 -157 575
-6 575 -5 -175 -48 c-96 -26 -175 -53 -175 -59 0 -90 71 -244 108 -235 23 6
139 37 257 69 118 32 215 56 215 53 0 -4 -248 -149 -552 -323 -304 -174 -556
-327 -561 -339 -7 -16 100 -227 143 -284 4 -5 564 314 867 494 144 85 144 72
3 -68 l-120 -119 94 -96 95 -95 178 175 c166 163 174 169 127 85 -28 -49 -173
-301 -322 -559 l-271 -468 54 -32 c30 -18 96 -57 146 -86 l92 -53 298 517
c165 285 301 515 304 513 2 -3 -18 -85 -45 -183 -27 -99 -50 -185 -50 -192 0
-7 43 -23 95 -36 52 -12 109 -27 127 -32 26 -8 43 33 90 216 l58 225 6 -270 6
-270 64 -40 c127 -80 114 -258 -23 -320 -39 -18 -43 -34 -43 -196 l0 -176 165
6 165 6 10 620 10 619 46 -189 c25 -105 52 -201 60 -214 20 -33 244 30 244 68
0 89 -47 203 -92 223 -135 62 -81 263 71 263 106 0 160 -161 80 -241 -23 -23
-39 -49 -35 -57 27 -68 488 -842 502 -842 27 0 274 142 274 157 0 8 -120 221
-266 474 -146 252 -292 504 -323 559 -56 99 -54 97 132 -85 l188 -185 85 86
c105 107 106 100 -31 241 -102 105 -107 114 -45 79 77 -45 882 -507 904 -519
30 -17 184 280 154 298 -15 9 -163 94 -328 190 -547 315 -801 468 -754 455
291 -82 476 -126 487 -114 8 8 27 65 43 127 l29 114 -142 34 c-223 54 -223 68
0 68 199 1 203 2 215 51 23 93 191 86 222 -9 12 -38 28 -41 251 -41 l239 0 0
171 0 172 -565 -3 c-838 -4 -807 -17 -292 121 l73 19 -30 105 c-16 58 -32 115
-36 127 -4 16 -62 8 -182 -24 -219 -59 -227 -65 312 242 248 141 458 263 467
271 19 16 -143 303 -164 292 -29 -17 -979 -561 -1043 -598 -50 -29 -15 15 120
152 l189 193 -94 95 -95 94 -143 -139 c-165 -161 -185 -208 174 410 125 215
232 404 239 422 9 24 -24 53 -129 113 l-141 82 -96 -163 c-53 -90 -190 -327
-305 -527 -115 -200 -212 -361 -215 -358 -3 4 18 99 47 213 28 114 54 215 55
225 2 9 -52 33 -120 52 l-125 35 -30 -104 c-17 -56 -42 -152 -56 -212 -23 -98
-26 -52 -35 482 l-10 590 -165 6 -164 6 -6 -606z m204 -705 c32 -38 19 -132
-21 -157 -88 -55 -189 50 -139 144 26 49 123 57 160 13z m841 -790 c0 -45 -87
-82 -128 -54 -73 49 -61 73 36 73 51 0 92 -8 92 -19z m-1511 -409 c184 -77
130 -341 -69 -341 -196 0 -253 262 -73 340 78 34 62 34 142 1z"/>
</g>
</svg>
