<?xml version="1.0" encoding="UTF-8"?>
<!DOCTYPE svg  PUBLIC '-//W3C//DTD SVG 20010904//EN'  'http://www.w3.org/TR/2001/REC-SVG-20010904/DTD/svg10.dtd'>
<svg version="1.0" viewBox="0 0 256 256" xmlns="http://www.w3.org/2000/svg">
<metadata>Created by potrace 1.10, written by Peter Selinger 2001-2011</metadata>
<g transform="translate(0 256) scale(.05 -.05)" fill="#fff">
<path d="m1366 4951c-184-224-127-476 184-811 285-308 359-535 263-815-43-126-59-130-90-26-55 182-325 387-581 442-147 32-163 7-74-110 228-298 179-598-180-1110-462-660-407-887 386-1584 264-233 265-233 177-72-92 168-151 353-151 469v96l65-115c136-243 377-483 605-604l100-53 33 80c48 111 156 142 506 142 331 0 386-22 444-176l17-45 103 51c130 65 382 325 523 539l104 159v-129c-1-143-49-281-159-460-76-123-92-132 262 141 534 411 603 512 606 870 1 232-8 255-250 632-183 285-236 402-336 752-96 336-149 447-266 558-155 147-229 183-197 97 32-84 23-276-21-416-53-174-71-178-98-22-75 435-347 814-747 1045-102 59-102 59-43-59 59-116 83-319 60-504-17-138-30-140-80-18-79 193-287 366-656 545-300 146-375 229-423 465l-25 120-61-74zm2437-2961c-52-331-307-566-771-708-158-49-162-48-129 30 93 217 255 380 613 616 144 94 267 181 275 193 27 45 32-2 12-131zm-2386 73c40-31 136-96 213-144 281-173 465-352 580-563 71-130 63-133-154-57-467 162-691 379-728 706-15 132-10 136 89 58z"/>
<path d="m2170 631c-28-27-55-84-62-130-7-44-15-81-18-81-20 0-165 70-249 120-57 33-107 60-113 60-28 0 121-163 286-312l186-168h369 370l75 64c126 106 326 302 371 365l43 58-149-81c-210-115-239-122-239-56 0 98-84 210-159 210-11 0-21-31-21-69 0-250-438-310-558-77-12 24-22 66-22 95 0 66-46 67-110 2z"/>
</g>
</svg>
