<?xml version="1.0" standalone="no"?>
<!DOCTYPE svg PUBLIC "-//W3C//DTD SVG 20010904//EN"
 "http://www.w3.org/TR/2001/REC-SVG-20010904/DTD/svg10.dtd">
<svg version="1.0" xmlns="http://www.w3.org/2000/svg"
 width="256.000000pt" height="256.000000pt" viewBox="0 0 256.000000 256.000000"
 preserveAspectRatio="xMidYMid meet">
<metadata>
Created by potrace 1.10, written by Peter Selinger 2001-2011
</metadata>
<g transform="translate(0.000000,256.000000) scale(0.050000,-0.050000)"
fill="#000000" stroke="none">
<path d="M2330 4887 c-1147 -140 -1974 -976 -2087 -2107 -158 -1581 1366
-2866 2907 -2452 1646 443 2277 2415 1196 3737 -468 572 -1296 910 -2016 822z
m740 -355 c1414 -384 1983 -2083 1075 -3213 -1211 -1507 -3600 -662 -3594
1271 4 1328 1248 2287 2519 1942z"/>
<path d="M2340 4398 c-1419 -161 -2109 -1847 -1216 -2972 759 -954 2274 -897
2955 112 776 1150 56 2707 -1323 2860 -213 24 -202 24 -416 0z m680 -938 l0
-440 430 0 430 0 0 -450 0 -449 -425 -6 -425 -5 -5 -405 -6 -405 -449 0 -449
0 -6 405 -5 405 -425 5 -425 6 0 449 0 450 430 0 430 0 0 440 0 440 450 0 450
0 0 -440z"/>
</g>
</svg>
