<?xml version="1.0" standalone="no"?>
<!DOCTYPE svg PUBLIC "-//W3C//DTD SVG 20010904//EN"
 "http://www.w3.org/TR/2001/REC-SVG-20010904/DTD/svg10.dtd">
<svg version="1.0" xmlns="http://www.w3.org/2000/svg"
 width="256.000000pt" height="256.000000pt" viewBox="0 0 256.000000 256.000000"
 preserveAspectRatio="xMidYMid meet">
<metadata>
Created by potrace 1.10, written by Peter Selinger 2001-2011
</metadata>
<g transform="translate(0.000000,256.000000) scale(0.050000,-0.050000)"
fill="#000000" stroke="none">
<path d="M2430 4886 c-467 -425 -1235 -762 -1828 -801 l-168 -11 14 -292 c77
-1630 753 -2858 1977 -3586 l135 -81 171 108 c1220 765 1888 1979 1943 3532
l12 325 -116 0 c-524 0 -1329 340 -1870 790 l-150 125 -120 -109z m247 -228
c434 -390 1195 -718 1665 -718 l118 0 3 -95 c48 -1431 -687 -2830 -1814 -3456
l-101 -56 -125 75 c-930 565 -1583 1596 -1712 2702 -89 762 -80 829 112 830
432 1 1203 347 1627 728 121 110 92 111 227 -10z"/>
<path d="M2355 4340 c-420 -342 -836 -520 -1297 -556 l-188 -14 -7 -140 c-53
-1127 598 -2366 1567 -2980 l119 -75 81 45 c965 546 1628 1790 1603 3010 l-3
140 -190 14 c-462 34 -892 224 -1319 581 -89 74 -164 135 -166 134 -3 0 -93
-72 -200 -159z m483 -455 c46 -23 75 -54 85 -91 8 -31 8 -53 1 -49 -225 120
-510 120 -726 0 -36 -20 14 102 52 127 111 73 451 80 588 13z m-78 -149 c39
-11 90 -33 115 -49 l45 -28 0 -770 0 -770 -55 -21 c-82 -31 -610 -15 -652 19
-52 44 -50 1501 2 1549 106 95 349 127 545 70z m-644 -99 c-4 -32 -23 -46 -66
-52 -33 -4 -86 -20 -118 -36 -32 -16 -60 -29 -62 -29 -3 0 0 22 5 49 17 89
254 155 241 68z m1079 -9 c25 -16 45 -47 45 -69 0 -36 -5 -38 -45 -16 -25 13
-76 30 -115 36 -54 9 -72 22 -77 59 -7 54 101 48 192 -10z m-1075 -768 l0
-660 -79 0 c-43 0 -101 9 -130 20 l-51 19 0 587 c0 650 -3 633 133 673 137 42
127 92 127 -639z m1060 613 l50 -24 5 -612 6 -612 -46 -12 c-25 -7 -79 -13
-120 -13 l-75 0 0 662 0 661 65 -13 c36 -8 88 -25 115 -37z m-1168 -1373 l88
0 0 -241 0 -241 -75 14 c-171 31 -165 21 -165 270 0 194 4 221 32 210 17 -7
71 -12 120 -12z m1248 -198 l0 -217 -55 -21 c-30 -12 -84 -27 -120 -34 l-65
-13 0 240 0 241 105 7 c58 4 112 9 120 11 8 2 15 -94 15 -214z m-710 68 c77 0
199 6 272 14 128 14 132 13 128 -30 -3 -24 -6 -144 -7 -267 l-3 -223 -85 -34
c-119 -48 -472 -48 -590 0 l-85 34 0 206 c0 113 -6 233 -12 267 l-13 63 128
-15 c70 -8 190 -15 267 -15z m-681 -360 c21 -16 81 -35 135 -42 89 -12 152
-89 71 -88 -125 3 -275 75 -275 133 0 34 20 33 69 -3z m1431 -9 c0 -48 -76
-91 -195 -110 -76 -13 -85 -10 -85 25 0 31 18 41 96 52 54 7 114 26 135 42 50
37 49 37 49 -9z m-1036 -250 c207 -62 604 -32 693 51 57 53 79 8 28 -59 -141
-189 -951 -123 -876 71 13 34 15 34 33 2 11 -19 66 -49 122 -65z"/>
</g>
</svg>
