<?xml version="1.0" encoding="UTF-8"?>
<!DOCTYPE svg  PUBLIC '-//W3C//DTD SVG 20010904//EN'  'http://www.w3.org/TR/2001/REC-SVG-20010904/DTD/svg10.dtd'>
<svg version="1.0" viewBox="0 0 256 256" xmlns="http://www.w3.org/2000/svg">
<metadata>Created by potrace 1.10, written by Peter Selinger 2001-2011</metadata>
<g transform="translate(0 256) scale(.05 -.05)" fill="#fff">
<path d="m1028 4992c-7-18-8-56-3-84 8-40-33-114-187-344-258-384-267-336 113-673 588-522 581-509 449-794-190-408-190-421 32-629l130-122-161-353c-118-261-157-368-149-408 7-40-26-133-123-345-193-420-186-373-61-428 74-33 110-62 119-95 19-72 285-184 347-145 24 15 57 23 72 17 53-21 99 50 86 132-12 76 16 141 713 1674 79 174 110 223 135 215 60-19 98 40 271 430 244 547 239 532 179 589-64 58-62 82 10 189 111 163 58 203-121 93-234-144-364 15-259 319 22 64 40 119 40 123 0 64-174-7-278-113-182-184-180-185-528 195-416 454-540 562-646 563-21 1-67 7-103 14-49 9-67 5-77-20zm764-2063c27-40-66-293-122-334-86-62-261 49-239 153 50 235 256 339 361 181z"/>
<path d="m3650 4540c-8-13-32-19-54-13-66 17-121-57-107-144 19-108-779-1872-848-1875-67-4-86-33-237-368-273-607-279-625-194-664 65-29 64-38-22-177-107-174-45-208 144-78 203 140 328-38 234-334-38-120-32-134 56-131 47 1 91 30 188 123 178 170 183 169 433-104 505-548 594-628 732-655 41-8 90-21 107-29 52-21 99 40 85 110-11 52 12 97 158 316 292 438 305 362-135 752-546 484-537 466-393 773 179 383 177 409-48 614l-125 114 159 350c115 255 156 365 148 404-7 40 29 138 129 357 187 409 182 372 61 422-71 30-105 57-113 89-19 76-324 202-358 148zm31-2034c185-127-21-481-219-375-93 50-97 87-31 236 83 188 136 217 250 139z"/>
</g>
</svg>
