<?xml version="1.0" encoding="UTF-8"?>
<!DOCTYPE svg  PUBLIC '-//W3C//DTD SVG 20010904//EN'  'http://www.w3.org/TR/2001/REC-SVG-20010904/DTD/svg10.dtd'>
<svg version="1.0" viewBox="0 0 256 256" xmlns="http://www.w3.org/2000/svg">
<metadata>Created by potrace 1.10, written by Peter Selinger 2001-2011</metadata>
<g transform="translate(0 256) scale(.05 -.05)" fill="#fff">
<path d="m2330 4887c-1147-140-1974-976-2087-2107-158-1581 1366-2866 2907-2452 1646 443 2277 2415 1196 3737-468 572-1296 910-2016 822zm740-355c1414-384 1983-2083 1075-3213-1211-1507-3600-662-3594 1271 4 1328 1248 2287 2519 1942z"/>
<path d="m2340 4398c-1419-161-2109-1847-1216-2972 759-954 2274-897 2955 112 776 1150 56 2707-1323 2860-213 24-202 24-416 0zm680-938v-440h430 430v-450-449l-425-6-425-5-5-405-6-405h-449-449l-6 405-5 405-425 5-425 6v449 450h430 430v440 440h450 450v-440z"/>
</g>
</svg>
