<?xml version="1.0" encoding="UTF-8"?>
<!DOCTYPE svg  PUBLIC '-//W3C//DTD SVG 20010904//EN'  'http://www.w3.org/TR/2001/REC-SVG-20010904/DTD/svg10.dtd'>
<svg version="1.0" viewBox="0 0 256 256" xmlns="http://www.w3.org/2000/svg">
<metadata>Created by potrace 1.10, written by Peter Selinger 2001-2011</metadata>
<g transform="translate(0 256) scale(.05 -.05)" fill="#fff">
<path d="m2522 4793c-23-53-48-119-54-145-16-63-51-80-200-95-810-80-1568-839-1693-1695l-23-159-207-63c-237-73-237-71 18-155l193-63 14-124c97-846 767-1548 1641-1720l236-46 48-129c66-177 69-178 131-11l55 147 114 14c947 112 1722 859 1821 1756l14 125 130 45c256 89 253 81 50 154l-180 65-14 123c-98 871-851 1617-1762 1745l-170 23-60 153-60 152-42-97zm-122-518v-126l-181-43c-613-146-1090-634-1200-1226-13-71-26-139-29-150-3-12-57-17-129-13l-125 7 14 113c87 698 690 1355 1390 1513 83 19 159 37 170 40 79 26 90 12 90-115zm491 104c721-128 1301-666 1481-1374 69-274 68-284-42-288-49-2-106-4-125-5-26-2-38 22-50 98-106 655-616 1181-1270 1308l-165 32v125c0 140-8 136 171 104zm-483-746c-1-18-3-231-5-473l-3-440h-471-471l14 75c68 375 387 718 788 847 125 40 151 39 148-9zm565-16c350-129 727-585 727-879 0-10-215-18-489-18h-490l-5 205c-3 113-3 329 0 481l6 275 74-13c41-7 120-30 177-51zm-1967-1314c74-627 790-1323 1360-1323 28 0 34-22 34-132v-132l-85 14c-800 124-1471 790-1565 1554l-14 114 117 6c149 8 139 14 153-101zm1346 97h48v-481c0-449-2-481-35-471-19 5-62 16-95 24-359 82-730 478-801 854l-13 73 397 6c218 3 409 3 424 0 14-3 48-5 75-5zm2067-14c19-16-64-361-122-506-243-611-830-1071-1466-1151l-111-14v130 129l105 13c633 74 1233 667 1326 1308 8 52 18 101 22 109 8 13 229-2 246-18zm-719-2c0-370-580-944-954-944-21 0-26 96-26 480v480h490c270 0 490-7 490-16z"/>
</g>
</svg>
