<?xml version="1.0" encoding="UTF-8"?>
<!DOCTYPE svg  PUBLIC '-//W3C//DTD SVG 20010904//EN'  'http://www.w3.org/TR/2001/REC-SVG-20010904/DTD/svg10.dtd'>
<svg version="1.0" viewBox="0 0 256 256" xmlns="http://www.w3.org/2000/svg">
<metadata>Created by potrace 1.10, written by Peter Selinger 2001-2011</metadata>
<g transform="translate(0 256) scale(.05 -.05)" fill="#fff">
<path d="m2430 4886c-467-425-1235-762-1828-801l-168-11 14-292c77-1630 753-2858 1977-3586l135-81 171 108c1220 765 1888 1979 1943 3532l12 325h-116c-524 0-1329 340-1870 790l-150 125-120-109zm247-228c434-390 1195-718 1665-718h118l3-95c48-1431-687-2830-1814-3456l-101-56-125 75c-930 565-1583 1596-1712 2702-89 762-80 829 112 830 432 1 1203 347 1627 728 121 110 92 111 227-10z"/>
<path d="m2355 4340c-420-342-836-520-1297-556l-188-14-7-140c-53-1127 598-2366 1567-2980l119-75 81 45c965 546 1628 1790 1603 3010l-3 140-190 14c-462 34-892 224-1319 581-89 74-164 135-166 134-3 0-93-72-200-159zm483-455c46-23 75-54 85-91 8-31 8-53 1-49-225 120-510 120-726 0-36-20 14 102 52 127 111 73 451 80 588 13zm-78-149c39-11 90-33 115-49l45-28v-770-770l-55-21c-82-31-610-15-652 19-52 44-50 1501 2 1549 106 95 349 127 545 70zm-644-99c-4-32-23-46-66-52-33-4-86-20-118-36s-60-29-62-29c-3 0 0 22 5 49 17 89 254 155 241 68zm1079-9c25-16 45-47 45-69 0-36-5-38-45-16-25 13-76 30-115 36-54 9-72 22-77 59-7 54 101 48 192-10zm-1075-768v-660h-79c-43 0-101 9-130 20l-51 19v587c0 650-3 633 133 673 137 42 127 92 127-639zm1060 613 50-24 5-612 6-612-46-12c-25-7-79-13-120-13h-75v662 661l65-13c36-8 88-25 115-37zm-1168-1373h88v-241-241l-75 14c-171 31-165 21-165 270 0 194 4 221 32 210 17-7 71-12 120-12zm1248-198v-217l-55-21c-30-12-84-27-120-34l-65-13v240 241l105 7c58 4 112 9 120 11s15-94 15-214zm-710 68c77 0 199 6 272 14 128 14 132 13 128-30-3-24-6-144-7-267l-3-223-85-34c-119-48-472-48-590 0l-85 34v206c0 113-6 233-12 267l-13 63 128-15c70-8 190-15 267-15zm-681-360c21-16 81-35 135-42 89-12 152-89 71-88-125 3-275 75-275 133 0 34 20 33 69-3zm1431-9c0-48-76-91-195-110-76-13-85-10-85 25 0 31 18 41 96 52 54 7 114 26 135 42 50 37 49 37 49-9zm-1036-250c207-62 604-32 693 51 57 53 79 8 28-59-141-189-951-123-876 71 13 34 15 34 33 2 11-19 66-49 122-65z"/>
</g>
</svg>
