<?xml version="1.0" encoding="UTF-8"?>
<svg data-name="Layer 1" viewBox="0 0 146.34 193.66" xmlns="http://www.w3.org/2000/svg">
<defs>
<style>.b, .c {
        stroke-width: 0px;
      }

      .c {
        fill: #fff;
      }</style>
</defs>
<path class="b" d="m146.1,182.69c0,3.26.35,3.23-44.16,3.23h-39.18c-1.36,0-2.47,1.11-2.47,2.47v.69c0,4.97-.81,5.23-8.32,2.74l-5.53-1.8c-.52-.17-1.08-.16-1.59.02l-5.14,1.81c-7.2,2.49-8.04,2.23-8.33-2.54l-.06-.98c-.07-1.28-1.11-2.28-2.38-2.33l-6.27-.21c-11.8-.36-16-2.32-20.32-9.52l-1.4-2.35c-.22-.38-.34-.82-.34-1.26l-.16-78.97L.25,14.62c0-.38.09-.76.26-1.1l1.42-2.9C3.93,6.55,7.71,3.13,12.16,1.43,15.35.2,17.22.17,77.45.3l61.14.12c.54,0,1.06.18,1.49.5l1.73,1.31c3.8,2.94,4.29,4.45,4.29,14.03v130.53c0,.5-.09,1-.44,1.41l-1.14,1.65c-.84,1.29-2.45,2.68-3.52,3.13-2.58,1.07-2.74,2.23-2.51,15.84l.15,8.71c0,.64.26,1.22.68,1.66.41.43.98.72,1.62.76,4.51.35,5.16.71,5.16,2.74Zm-14.17-4.99v-20.17c0-1.3-1.01-2.38-2.31-2.47l-3.98-.26c-8.45-.55-106.97-.39-109.84.19-11.87,2.39-14.29,17.42-3.81,23.55,1.74,1.07,3.68,1.32,10.39,1.55l5.71.18c1.39.04,2.55-1.08,2.55-2.47v-4.82c0-1.36-1.11-2.47-2.48-2.47h-2.07c-6.32,0-8.61-1.74-6.52-5.03.5-.79,40.49-1.21,49.39-.67,1.28.08,2.31,1.12,2.33,2.4v.07c0,2.55-1.52,3.23-7.1,3.23h-2c-1.41,0-2.53,1.17-2.48,2.58l.09,2.1.1,2.31c.05,1.32,1.14,2.37,2.46,2.38l33.6.15,33.49.15c1.37,0,2.48-1.11,2.48-2.48Zm-78.06.55v-5.27c0-1.36-1.11-2.47-2.48-2.47h-11.82c-1.37,0-2.48,1.11-2.48,2.47v5.34c0,5.96.19,7.74.81,7.51,6.58-2.42,7.16-2.48,11.09-1.13,2.1.71,4.04,1.29,4.33,1.29s.55-3.48.55-7.74Z"/>
<path class="c" d="m131.93,167.7v10c0,1.37-1.11,2.48-2.48,2.48l-33.49-.15-33.6-.15c-1.32-.01-2.41-1.06-2.46-2.38l-.1-2.31-.09-2.1c-.05-1.41,1.07-2.58,2.48-2.58h2c5.58,0,7.1-.68,7.1-3.23v-.07c-.02-1.28-1.05-2.32-2.33-2.4-8.9-.54-48.89-.12-49.39.67-2.09,3.29.2,5.03,6.52,5.03h2.07c1.37,0,2.48,1.11,2.48,2.47v4.82c0,1.39-1.16,2.51-2.55,2.47l-5.71-.18c-6.71-.23-8.65-.48-10.39-1.55-10.48-6.13-8.06-21.16,3.81-23.55,2.87-.58,101.39-.74,109.84-.19l3.98.26c1.3.09,2.31,1.17,2.31,2.47v10.17Z"/>
<path class="c" d="m53.87,172.98v5.27c0,4.26-.26,7.74-.55,7.74s-2.23-.58-4.33-1.29c-3.93-1.35-4.51-1.29-11.09,1.13-.62.23-.81-1.55-.81-7.51v-5.34c0-1.36,1.11-2.47,2.48-2.47h11.82c1.37,0,2.48,1.11,2.48,2.47Z"/>
<path class="c" d="m28.6 25.58h5.39v14.45l6.86-14.45h5.39l-6.42 12.59 6.52 21.71h-5.63l-4.56-15.29-2.16 4.36v10.93h-5.39v-34.3z"/>
<path class="c" d="m48.89,25.58h14.26v4.9h-8.87v9.55h6.96v4.9h-6.96v14.94h-5.39V25.58Z"/>
<path class="c" d="m65.64,56.16c0-4.9,1.37-7.89,5.39-12.1,4.12-4.36,5.29-6.96,5.29-10.14s-1.08-3.92-2.79-3.92-2.79.93-2.79,3.38v3.67h-5.1v-3.33c0-5.49,2.74-8.62,8.04-8.62s8.04,3.14,8.04,8.62c0,4.07-1.67,7.69-6.66,12.98-3.23,3.43-4.07,5.14-4.07,7.54v.74h10.24v4.9h-15.58v-3.72Z"/>
<path class="c" d="m28.6,84.38h8.13c5.58,0,7.99,2.6,7.99,7.89v1.37c0,3.53-1.08,5.73-3.48,6.71v.1c2.89.98,4.02,3.53,4.02,7.15v2.94c0,5.29-2.79,8.13-8.18,8.13h-8.48v-34.3Zm7.5,13.96c2.01,0,3.23-.88,3.23-3.62v-1.91c0-2.45-.83-3.53-2.74-3.53h-2.6v9.06h2.11Zm.98,15.43c1.81,0,2.79-.83,2.79-3.38v-2.99c0-3.18-1.03-4.16-3.48-4.16h-2.4v10.53h3.09Z"/>
<path class="c" d="m48.4 84.38h5.39v34.3h-5.39v-34.3z"/>
<path class="c" d="m57.8,84.38h8.13c5.58,0,7.99,2.6,7.99,7.89v1.37c0,3.53-1.08,5.73-3.48,6.71v.1c2.89.98,4.02,3.53,4.02,7.15v2.94c0,5.29-2.79,8.13-8.18,8.13h-8.48v-34.3Zm7.5,13.96c2.01,0,3.23-.88,3.23-3.62v-1.91c0-2.45-.83-3.53-2.74-3.53h-2.6v9.06h2.11Zm.98,15.43c1.81,0,2.79-.83,2.79-3.38v-2.99c0-3.18-1.03-4.16-3.48-4.16h-2.4v10.53h3.09Z"/>
<path class="c" d="m77.6 84.38h5.39v29.4h8.87v4.9h-14.26v-34.3z"/>
<path class="c" d="m94.45 84.38h14.7v4.9h-9.31v9.06h7.4v4.9h-7.4v10.53h9.31v4.9h-14.7v-34.3z"/>
</svg>
