<?xml version="1.0" standalone="no"?>
<!DOCTYPE svg PUBLIC "-//W3C//DTD SVG 20010904//EN"
 "http://www.w3.org/TR/2001/REC-SVG-20010904/DTD/svg10.dtd">
<svg version="1.0" xmlns="http://www.w3.org/2000/svg"
 width="256.000000pt" height="256.000000pt" viewBox="0 0 256.000000 256.000000"
 preserveAspectRatio="xMidYMid meet">
<metadata>
Created by potrace 1.10, written by Peter Selinger 2001-2011
</metadata>
<g transform="translate(0.000000,256.000000) scale(0.050000,-0.050000)"
fill="#000000" stroke="none">
<path d="M1833 4805 c-26 -41 -134 -209 -240 -373 -227 -350 -219 -316 -88
-372 58 -25 225 -103 373 -173 147 -70 278 -127 291 -127 25 0 451 734 451
777 0 35 -81 227 -108 257 -20 22 -454 86 -580 86 -38 0 -64 -20 -99 -75z"/>
<path d="M2812 4505 c-99 -55 -555 -770 -516 -808 8 -7 118 -60 244 -118 294
-134 272 -104 243 -341 -14 -111 -22 -206 -17 -211 11 -11 699 970 701 1000 1
13 -6 71 -15 130 l-16 107 -228 148 c-257 167 -261 168 -396 93z"/>
<path d="M1265 3925 c-33 -52 -219 -340 -412 -639 l-352 -545 529 -881 529
-882 6 -414 5 -414 1010 0 1010 0 5 337 6 337 152 178 152 178 87 405 c47 223
91 421 95 440 5 19 6 35 2 35 -5 0 -349 -422 -421 -517 -3 -4 -125 91 -272
211 -688 566 -1158 870 -1231 798 -4 -4 78 -159 181 -344 103 -186 270 -487
371 -670 l183 -332 0 -273 0 -273 -50 0 -50 0 0 266 0 267 -373 683 -373 684
-217 0 -217 0 0 50 0 50 211 0 212 0 -213 182 c-204 176 -210 184 -178 221 34
36 36 36 76 1 23 -20 105 -91 183 -158 l140 -122 287 77 c342 92 294 47 328
307 l28 218 -222 105 c-122 57 -339 158 -482 225 -143 66 -349 162 -457 212
-108 51 -199 92 -201 92 -3 0 -33 -43 -67 -95z"/>
<path d="M3054 3219 c-250 -363 -460 -672 -466 -687 -6 -17 64 -79 196 -173
113 -80 233 -167 267 -192 l61 -46 451 545 451 544 25 135 c29 155 42 125
-159 373 l-130 160 -120 1 -120 0 -456 -660z"/>
<path d="M3625 2568 l-426 -510 56 -46 c238 -201 375 -312 384 -311 21 1 711
861 727 905 10 27 2 114 -21 224 l-37 180 -99 33 c-54 19 -112 34 -129 34 -16
0 -221 -229 -455 -509z"/>
<path d="M2344 2756 c-124 -34 -222 -64 -218 -68 3 -4 89 -19 191 -34 l184
-28 69 97 c84 117 85 117 -226 33z"/>
</g>
</svg>
