<?xml version="1.0" standalone="no"?>
<!DOCTYPE svg PUBLIC "-//W3C//DTD SVG 20010904//EN"
 "http://www.w3.org/TR/2001/REC-SVG-20010904/DTD/svg10.dtd">
<svg version="1.0" xmlns="http://www.w3.org/2000/svg"
 width="256.000000pt" height="256.000000pt" viewBox="0 0 256.000000 256.000000"
 preserveAspectRatio="xMidYMid meet">
<metadata>
Created by potrace 1.10, written by Peter Selinger 2001-2011
</metadata>
<g transform="translate(0.000000,256.000000) scale(0.100000,-0.100000)"
fill="#000000" stroke="none">
<path d="M1215 2372 c-26 -64 -70 -169 -97 -233 l-49 -116 -187 -12 c-103 -7
-204 -13 -224 -13 -21 -1 -38 -4 -38 -8 0 -4 80 -73 178 -155 97 -81 178 -150
180 -154 1 -3 -22 -105 -52 -226 -30 -121 -52 -222 -51 -224 2 -2 90 54 195
123 105 69 193 126 197 126 3 0 91 -56 195 -125 105 -69 192 -124 194 -122 3
3 -86 378 -102 429 -3 12 44 57 176 168 99 84 180 156 180 159 0 4 -100 13
-222 20 -123 7 -224 14 -225 14 0 1 -42 101 -93 222 -51 121 -95 226 -99 232
-4 7 -28 -38 -56 -105z"/>
<path d="M150 1656 l0 -123 468 -380 467 -379 5 -354 5 -355 78 -3 77 -3 0
420 0 419 -545 441 c-299 243 -547 441 -550 441 -3 0 -5 -56 -5 -124z"/>
<path d="M1855 1341 l-540 -437 -3 -422 -2 -422 74 0 c68 0 74 2 80 22 3 13 6
174 6 358 l0 336 470 379 470 379 0 123 c0 68 -3 123 -7 123 -5 -1 -251 -198
-548 -439z"/>
<path d="M1908 1018 l-398 -322 0 -93 0 -94 288 232 c158 128 338 273 400 322
l112 91 0 93 c0 51 -1 93 -2 93 -2 -1 -182 -146 -400 -322z"/>
<path d="M242 1248 c-1 -46 1 -88 5 -94 5 -6 179 -147 388 -314 209 -166 388
-310 398 -318 16 -14 17 -10 17 79 l0 94 -390 313 c-215 172 -396 315 -403
317 -9 4 -13 -17 -15 -77z"/>
<path d="M420 877 l0 -85 307 -248 c169 -137 311 -250 315 -252 4 -2 8 34 8
80 l-1 83 -260 210 c-144 116 -285 229 -315 253 l-54 44 0 -85z"/>
<path d="M1822 709 l-312 -252 0 -84 0 -84 28 21 c15 12 156 126 315 253 l287
231 0 83 c0 46 -1 83 -3 83 -1 0 -143 -113 -315 -251z"/>
<path d="M600 513 c0 -82 -25 -54 248 -272 l202 -161 0 77 -1 78 -214 170
c-117 93 -218 171 -224 173 -7 2 -11 -21 -11 -65z"/>
<path d="M1727 408 l-217 -173 0 -78 0 -77 220 176 220 176 0 74 c0 41 -1 74
-3 74 -2 0 -101 -78 -220 -172z"/>
</g>
</svg>
