<?xml version="1.0" standalone="no"?>
<!DOCTYPE svg PUBLIC "-//W3C//DTD SVG 20010904//EN"
 "http://www.w3.org/TR/2001/REC-SVG-20010904/DTD/svg10.dtd">
<svg version="1.0" xmlns="http://www.w3.org/2000/svg"
 width="256.000000pt" height="256.000000pt" viewBox="0 0 256.000000 256.000000"
 preserveAspectRatio="xMidYMid meet">
<metadata>
Created by potrace 1.10, written by Peter Selinger 2001-2011
</metadata>
<g transform="translate(0.000000,256.000000) scale(0.050000,-0.050000)"
fill="#000000" stroke="none">
<path d="M2522 4793 c-23 -53 -48 -119 -54 -145 -16 -63 -51 -80 -200 -95
-810 -80 -1568 -839 -1693 -1695 l-23 -159 -207 -63 c-237 -73 -237 -71 18
-155 l193 -63 14 -124 c97 -846 767 -1548 1641 -1720 l236 -46 48 -129 c66
-177 69 -178 131 -11 l55 147 114 14 c947 112 1722 859 1821 1756 l14 125 130
45 c256 89 253 81 50 154 l-180 65 -14 123 c-98 871 -851 1617 -1762 1745
l-170 23 -60 153 -60 152 -42 -97z m-122 -518 l0 -126 -181 -43 c-613 -146
-1090 -634 -1200 -1226 -13 -71 -26 -139 -29 -150 -3 -12 -57 -17 -129 -13
l-125 7 14 113 c87 698 690 1355 1390 1513 83 19 159 37 170 40 79 26 90 12
90 -115z m491 104 c721 -128 1301 -666 1481 -1374 69 -274 68 -284 -42 -288
-49 -2 -106 -4 -125 -5 -26 -2 -38 22 -50 98 -106 655 -616 1181 -1270 1308
l-165 32 0 125 c0 140 -8 136 171 104z m-483 -746 c-1 -18 -3 -231 -5 -473
l-3 -440 -471 0 -471 0 14 75 c68 375 387 718 788 847 125 40 151 39 148 -9z
m565 -16 c350 -129 727 -585 727 -879 0 -10 -215 -18 -489 -18 l-490 0 -5 205
c-3 113 -3 329 0 481 l6 275 74 -13 c41 -7 120 -30 177 -51z m-1967 -1314 c74
-627 790 -1323 1360 -1323 28 0 34 -22 34 -132 l0 -132 -85 14 c-800 124
-1471 790 -1565 1554 l-14 114 117 6 c149 8 139 14 153 -101z m1346 97 l48 0
0 -481 c0 -449 -2 -481 -35 -471 -19 5 -62 16 -95 24 -359 82 -730 478 -801
854 l-13 73 397 6 c218 3 409 3 424 0 14 -3 48 -5 75 -5z m2067 -14 c19 -16
-64 -361 -122 -506 -243 -611 -830 -1071 -1466 -1151 l-111 -14 0 130 0 129
105 13 c633 74 1233 667 1326 1308 8 52 18 101 22 109 8 13 229 -2 246 -18z
m-719 -2 c0 -370 -580 -944 -954 -944 -21 0 -26 96 -26 480 l0 480 490 0 c270
0 490 -7 490 -16z"/>
</g>
</svg>
