<?xml version="1.0" standalone="no"?>
<!DOCTYPE svg PUBLIC "-//W3C//DTD SVG 20010904//EN"
 "http://www.w3.org/TR/2001/REC-SVG-20010904/DTD/svg10.dtd">
<svg version="1.0" xmlns="http://www.w3.org/2000/svg"
 width="256.000000pt" height="256.000000pt" viewBox="0 0 256.000000 256.000000"
 preserveAspectRatio="xMidYMid meet">
<metadata>
Created by potrace 1.10, written by Peter Selinger 2001-2011
</metadata>
<g transform="translate(0.000000,256.000000) scale(0.050000,-0.050000)"
fill="#000000" stroke="none">
<path d="M2320 4879 c-816 -82 -1526 -589 -1880 -1343 -69 -149 -180 -499
-180 -571 0 -36 538 -36 549 0 124 421 215 580 491 855 955 954 2525 577 2958
-711 l58 -172 267 0 267 0 -7 57 c-140 1108 -1338 2004 -2523 1885z"/>
<path d="M1464 2955 l6 -285 1095 -5 1095 -5 0 290 0 290 -1101 0 -1100 0 5
-285z"/>
<path d="M1464 2085 l6 -275 1095 -5 1095 -5 0 280 0 280 -1101 0 -1100 0 5
-275z"/>
<path d="M312 1937 c419 -1565 2332 -2222 3632 -1247 438 330 798 880 884
1356 l14 75 -272 -5 -273 -6 -65 -174 c-588 -1562 -2865 -1533 -3372 44 l-45
140 -276 0 -276 0 49 -183z"/>
</g>
</svg>
