<?xml version="1.0" standalone="no"?>
<!DOCTYPE svg PUBLIC "-//W3C//DTD SVG 20010904//EN"
 "http://www.w3.org/TR/2001/REC-SVG-20010904/DTD/svg10.dtd">
<svg version="1.0" xmlns="http://www.w3.org/2000/svg"
 width="256.000000pt" height="256.000000pt" viewBox="0 0 256.000000 256.000000"
 preserveAspectRatio="xMidYMid meet">
<metadata>
Created by potrace 1.10, written by Peter Selinger 2001-2011
</metadata>
<g transform="translate(0.000000,256.000000) scale(0.050000,-0.050000)"
fill="#000000" stroke="none">
<path d="M2360 5008 c-710 -132 -1151 -433 -1411 -965 -96 -195 -232 -763
-184 -763 5 0 60 18 122 39 813 280 2501 282 3323 4 149 -50 143 -58 114 165
-92 730 -594 1282 -1340 1474 -148 38 -520 65 -624 46z"/>
<path d="M2000 3407 c-579 -52 -1365 -243 -1457 -353 -98 -118 -242 -867 -243
-1260 0 -128 4 -140 64 -195 65 -59 95 -72 98 -44 1 8 5 42 10 75 5 33 22 156
39 274 91 644 150 728 593 846 947 251 2035 251 2907 -1 454 -130 498 -196
595 -894 24 -173 51 -315 61 -315 50 0 153 139 153 206 0 383 -157 1192 -252
1297 -212 233 -1695 444 -2568 364z"/>
<path d="M2218 2813 c-4 -4 -81 -13 -170 -20 -182 -14 -446 -57 -663 -107
-165 -38 -157 -21 -132 -290 l13 -134 362 -120 c557 -185 550 -186 670 60 144
296 386 291 523 -11 104 -229 129 -231 670 -49 392 132 358 102 366 325 l7
189 -137 31 c-442 99 -1444 183 -1509 126z"/>
<path d="M966 2587 c-103 -36 -199 -122 -217 -194 -14 -55 24 -125 297 -543
l118 -180 -13 350 c-23 648 -16 627 -185 567z"/>
<path d="M3972 2275 c-7 -190 -18 -403 -24 -475 -13 -161 -14 -161 238 239
223 355 221 424 -14 533 -191 89 -185 99 -200 -297z"/>
<path d="M660 2159 c0 -27 -5 -80 -11 -119 -10 -61 7 -99 139 -310 160 -254
170 -284 121 -359 -58 -88 130 -382 235 -366 69 10 429 -413 527 -618 95 -202
182 -229 779 -238 718 -11 893 27 977 215 41 92 424 605 477 638 10 7 39 8 64
3 89 -17 288 279 236 351 -13 19 -30 45 -36 59 -15 30 50 158 190 376 85 133
102 174 101 249 -3 185 -21 182 -159 -32 -483 -749 -810 -1210 -905 -1277 -38
-27 -156 -31 -845 -31 l-802 0 -91 95 c-129 133 -272 333 -630 881 -347 531
-367 557 -367 483z"/>
<path d="M593 1707 c-7 -51 -13 -123 -13 -160 l0 -67 122 0 c122 0 123 0 94
45 -16 25 -60 97 -97 160 -83 139 -90 141 -106 22z"/>
<path d="M4453 1751 c-54 -81 -153 -252 -153 -262 0 -5 55 -9 122 -9 l122 0
-15 125 c-21 189 -33 212 -76 146z"/>
</g>
</svg>
